<svg xmlns="http://www.w3.org/2000/svg" id="Layer_1" enable-background="new 0 0 64 64" viewBox="0 0 64 64"><path fill="#ffcc4d" d="M60.89,32c0,16.81-13.63,30.44-30.44,30.44c-7.88,0-15.07-3-20.47-7.91C3.84,48.97,0,40.93,0,32
		C0,15.19,13.63,1.56,30.44,1.56c8.92,0,16.94,3.83,22.51,9.95c0.01,0.01,0.02,0.02,0.03,0.02C57.89,16.93,60.89,24.12,60.89,32z"/><path fill="#2e435a" d="M18.67 33.5c-.81 0-1.47-.66-1.47-1.47 0-2-1.63-3.63-3.63-3.63-2 0-3.63 1.63-3.63 3.63 0 .81-.66 1.47-1.47 1.47-.81 0-1.47-.66-1.47-1.47 0-3.63 2.95-6.58 6.57-6.58 3.63 0 6.58 2.95 6.58 6.58C20.14 32.85 19.48 33.5 18.67 33.5zM52.43 33.5c-.81 0-1.47-.66-1.47-1.47 0-2-1.63-3.63-3.63-3.63-2 0-3.63 1.63-3.63 3.63 0 .81-.66 1.47-1.47 1.47-.81 0-1.47-.66-1.47-1.47 0-3.63 2.95-6.58 6.58-6.58 3.63 0 6.58 2.95 6.58 6.58C53.9 32.85 53.24 33.5 52.43 33.5zM44 40.61c-.48 3.22-2.14 6.07-4.54 8.12-2.4 2.05-5.56 3.29-9.01 3.29-3.45 0-6.6-1.24-9.01-3.29-2.4-2.05-4.06-4.9-4.54-8.12-.15-1.02.67-1.93 1.7-1.93h23.7C43.33 38.68 44.15 39.59 44 40.61z"/><path fill="#fff" d="M37.5,42.46h-14.1c-1.86,0-3.37-1.51-3.37-3.37v-0.41h20.85v0.41C40.87,40.95,39.36,42.46,37.5,42.46z"/><path fill="#d3333f" d="M39.45,48.73c-2.4,2.05-5.56,3.29-9.01,3.29c-3.45,0-6.6-1.24-9.01-3.29c2.11-2.06,5.36-3.38,9.01-3.38
			C34.09,45.35,37.35,46.67,39.45,48.73z"/><g><path fill="#59cbef" d="M52.76,19.06c-0.05,3.1,2.43,5.65,5.54,5.7c3.1,0.05,5.65-2.43,5.7-5.54c0.03-2.19-2.7-7.88-4.3-11.01
			c-0.48-0.94-1.82-0.96-2.32-0.03C55.69,11.26,52.8,16.86,52.76,19.06z"/></g><g><path fill="#59cbef" d="M0,43.63c-0.04,2.53,1.98,4.61,4.51,4.64c2.53,0.04,4.61-1.98,4.64-4.51c0.03-1.79-2.2-6.42-3.5-8.97
			c-0.39-0.77-1.48-0.78-1.89-0.03C2.38,37.28,0.03,41.84,0,43.63z"/></g><g><path fill="#59cbef" d="M44.67,11.15c-0.03,1.98,1.56,3.61,3.54,3.64c1.98,0.03,3.61-1.56,3.64-3.54c0.02-1.4-1.72-5.03-2.75-7.04
			c-0.31-0.6-1.16-0.61-1.48-0.02C46.54,6.17,44.69,9.75,44.67,11.15z"/></g></svg>